<svg xmlns="http://www.w3.org/2000/svg" width="30" height="30" fill="none"><path fill="#000" d="M10.75 13.7a1.75 1.75 0 1 0 0-3.5 1.75 1.75 0 0 0 0 3.5M19.25 13.7a1.75 1.75 0 1 0 0-3.5 1.75 1.75 0 0 0 0 3.5"/><path stroke="#000" stroke-linecap="round" stroke-width="2" d="M20.745 19A6.99 6.99 0 0 1 15 22a6.99 6.99 0 0 1-5.745-3M15 27.296c6.79 0 12.296-5.505 12.296-12.296S21.79 2.704 15 2.704 2.704 8.21 2.704 15 8.21 27.296 15 27.296ZM10.75 13.7a1.75 1.75 0 1 0 0-3.5 1.75 1.75 0 0 0 0 3.5Zm8.5 0a1.75 1.75 0 1 0 0-3.5 1.75 1.75 0 0 0 0 3.5Z"/></svg>